<?xml version="1.0" standalone="no"?>
<!DOCTYPE svg PUBLIC "-//W3C//DTD SVG 20010904//EN"
 "http://www.w3.org/TR/2001/REC-SVG-20010904/DTD/svg10.dtd">
<svg version="1.0" xmlns="http://www.w3.org/2000/svg"
 width="1433.000000pt" height="1433.000000pt" viewBox="0 0 1433.000000 1433.000000"
 preserveAspectRatio="xMidYMid meet">
<metadata>
Created by potrace 1.11, written by Peter Selinger 2001-2013
</metadata>
<g transform="translate(0.000000,1433.000000) scale(0.100000,-0.100000)"
fill="#000000" stroke="none">
<path d="M7121 13838 c-39 -93 -103 -337 -150 -578 -65 -335 -73 -616 -25
-945 17 -117 83 -333 169 -550 85 -216 305 -649 457 -899 77 -126 111 -208
146 -343 25 -100 27 -123 27 -313 0 -165 -3 -216 -17 -260 -52 -167 -209 -273
-403 -272 -191 1 -383 86 -549 242 -80 76 -135 193 -171 365 -30 145 -18 506
22 660 19 73 27 544 13 702 -26 279 -103 485 -258 691 -117 157 -194 222 -234
201 -22 -12 -14 -36 41 -117 97 -141 127 -249 138 -488 14 -329 -50 -498 -346
-918 -191 -272 -303 -466 -354 -616 -93 -273 -81 -559 33 -795 108 -224 352
-510 701 -823 143 -128 203 -198 278 -324 68 -113 113 -221 148 -354 25 -97
28 -126 28 -264 0 -173 -22 -308 -73 -460 -42 -124 -68 -168 -137 -236 -140
-137 -509 -264 -770 -264 -317 0 -572 109 -850 363 -174 160 -322 453 -354
704 -19 147 -22 278 -12 423 31 409 120 706 394 1312 63 139 133 307 156 373
64 191 118 488 176 975 46 388 38 582 -32 804 -30 96 -92 223 -122 250 -39 35
-51 16 -51 -83 0 -266 -80 -581 -220 -866 -213 -435 -498 -740 -1090 -1170
-217 -158 -316 -240 -476 -400 -195 -193 -288 -312 -421 -535 -157 -263 -234
-429 -318 -685 -92 -276 -117 -440 -114 -745 3 -340 31 -486 135 -692 106
-213 235 -380 553 -721 33 -35 34 -37 11 -29 -14 6 -315 121 -670 257 -355
136 -663 254 -685 263 -37 14 -43 14 -78 -3 -23 -11 -40 -27 -43 -42 -7 -26
21 -99 41 -111 7 -4 50 -41 96 -83 228 -206 626 -562 1014 -904 237 -209 435
-384 441 -390 6 -5 73 -64 148 -130 l137 -120 -3 -85 c-5 -107 -27 -157 -108
-236 -70 -69 -133 -110 -255 -169 -49 -24 -104 -58 -122 -75 -112 -110 -38
-447 159 -724 240 -337 564 -745 683 -860 55 -53 146 -120 228 -168 60 -35 76
-40 133 -40 74 0 142 28 212 87 110 95 466 163 629 121 148 -37 213 -102 256
-256 43 -151 41 -263 -4 -357 -39 -80 -172 -183 -369 -285 -93 -48 -116 -75
-126 -150 -5 -34 -1 -58 19 -107 60 -149 141 -244 302 -357 217 -151 358 -210
546 -229 56 -6 74 -4 115 14 89 40 113 81 134 231 25 175 82 314 158 381 45
39 47 40 101 34 70 -8 165 -51 213 -96 75 -71 72 -161 -14 -409 -62 -177 -68
-228 -38 -299 51 -117 271 -230 535 -274 103 -18 269 -21 370 -6 195 27 436
107 476 157 28 35 22 103 -19 227 -77 232 -79 475 -3 622 35 69 53 76 189 71
106 -4 122 -7 172 -33 109 -59 139 -155 156 -500 7 -157 24 -204 82 -228 63
-27 90 -28 190 -11 305 51 476 144 720 390 138 139 175 198 149 237 -31 46
-70 76 -179 132 -272 140 -363 232 -413 420 -24 91 -23 281 3 337 46 100 197
243 322 306 135 67 295 17 570 -178 125 -88 152 -101 215 -103 43 -1 61 5 106
33 155 99 373 292 625 550 190 196 290 330 383 517 127 253 196 549 148 639
-21 40 -69 80 -148 124 -106 58 -179 141 -243 272 -30 62 -64 140 -75 173
l-19 59 106 116 c59 63 109 117 112 120 3 3 73 79 155 170 82 91 152 167 155
170 3 3 50 54 105 115 55 60 150 164 210 230 108 118 277 304 323 354 13 14
40 44 60 66 321 349 726 802 755 845 23 34 21 82 -5 115 -30 38 -58 31 -257
-64 -91 -43 -341 -163 -555 -265 -214 -103 -390 -185 -391 -184 -2 2 14 60 35
129 21 70 51 189 66 265 26 124 29 158 28 319 -1 277 -50 515 -160 775 -81
195 -253 466 -534 845 -309 417 -616 898 -768 1201 -210 419 -289 705 -352
1261 -23 202 -31 236 -57 231 -47 -9 -219 -495 -263 -741 -53 -301 -54 -684
-4 -980 31 -183 150 -578 239 -794 77 -185 95 -260 102 -425 9 -203 -16 -382
-67 -487 -116 -239 -248 -357 -465 -417 -78 -21 -289 -29 -385 -15 -178 27
-321 151 -433 376 -79 157 -92 205 -91 330 0 100 4 120 38 220 54 159 150 343
261 500 115 162 217 323 263 412 180 350 177 636 -12 1208 -58 174 -119 296
-260 518 -172 272 -474 647 -775 962 -233 244 -375 407 -463 530 -67 93 -151
269 -182 380 -48 172 -92 427 -100 584 -3 46 -10 89 -17 97 -20 25 -39 15 -58
-28z"/>
</g>
</svg>
