<?xml version="1.0" standalone="no"?>
<!DOCTYPE svg PUBLIC "-//W3C//DTD SVG 20010904//EN"
 "http://www.w3.org/TR/2001/REC-SVG-20010904/DTD/svg10.dtd">
<svg version="1.0" xmlns="http://www.w3.org/2000/svg"
 width="256.000000pt" height="256.000000pt" viewBox="0 0 256.000000 256.000000"
 preserveAspectRatio="xMidYMid meet">
<metadata>
Created by potrace 1.11, written by Peter Selinger 2001-2013
</metadata>
<g transform="translate(0.000000,256.000000) scale(0.100000,-0.100000)"
fill="#000000" stroke="none">
<path d="M1000 2548 c-103 -16 -144 -30 -241 -79 -176 -91 -305 -251 -363
-449 -22 -78 -24 -103 -25 -302 l-2 -217 -130 -338 c-72 -186 -139 -360 -149
-388 -10 -27 -32 -86 -50 -130 -18 -44 -32 -92 -32 -107 2 -80 154 -219 348
-317 508 -256 1131 -284 1677 -77 270 102 518 290 519 393 0 22 -205 575 -252
678 -5 11 -31 80 -59 153 l-51 132 0 209 c0 175 -3 220 -20 286 -56 217 -186
382 -380 480 -56 28 -160 67 -160 60 0 -3 -12 0 -27 7 -32 12 -531 18 -603 6z
m55 -783 c33 -9 93 -34 133 -56 41 -21 82 -39 92 -39 10 0 51 18 92 39 89 48
154 67 233 70 191 6 336 -82 430 -260 19 -37 80 -183 135 -326 55 -142 105
-267 109 -278 5 -11 39 -97 76 -192 55 -142 65 -175 55 -192 -12 -24 -52 -28
-68 -8 -9 11 -93 222 -324 817 -73 186 -133 266 -238 318 -49 24 -66 27 -156
27 l-101 0 -105 -52 c-63 -32 -118 -53 -138 -53 -20 0 -75 21 -138 53 -99 49
-110 52 -187 54 -129 3 -206 -27 -283 -111 -53 -57 -86 -124 -172 -348 -39
-101 -75 -192 -80 -203 -5 -11 -50 -125 -100 -254 -50 -129 -95 -240 -101
-248 -17 -20 -57 -16 -69 7 -11 21 27 126 277 760 89 226 141 319 214 385 45
41 131 84 182 92 18 3 33 6 35 7 10 10 148 4 197 -9z m6 -231 c88 -28 129 -97
129 -222 0 -123 13 -116 -258 -120 l-230 -3 -28 24 c-23 20 -27 32 -27 74 0
136 108 240 268 261 65 9 77 7 146 -14z m663 -4 c112 -42 174 -114 190 -223 7
-43 -13 -90 -43 -107 -30 -15 -439 -13 -471 3 -23 12 -25 18 -28 97 -3 98 12
151 57 194 59 56 196 73 295 36z m-368 -456 c43 -29 56 -61 59 -155 3 -64 0
-89 -8 -90 -7 -1 -69 -2 -138 -3 l-127 -1 2 85 c3 114 31 164 101 183 29 8 84
-2 111 -19z m-122 -522 l0 -177 -67 -3 -67 -3 0 180 0 180 28 3 c15 2 45 2 67
0 l40 -4 -1 -176z m226 -4 l0 -179 -67 3 -67 3 -1 175 0 175 45 5 c96 11 90
22 90 -182z m185 -88 l-1 -85 -45 -3 -45 -3 0 137 0 137 46 -49 46 -49 -1 -85z
m-639 40 l0 -131 -45 3 -46 3 0 85 c0 85 0 85 39 128 21 23 42 42 46 42 3 0 6
-59 6 -130z m-223 -93 c24 -28 18 -66 -15 -90 -34 -25 -73 -17 -92 21 -12 23
-12 32 -1 59 20 47 72 52 108 10z m1074 19 c43 -14 48 -93 6 -111 -37 -16 -57
-15 -80 7 -31 29 -30 71 2 96 26 21 33 21 72 8z"/>
</g>
</svg>
